<svg width="341" height="94" viewBox="0 0 341 94" fill="none" xmlns="http://www.w3.org/2000/svg">
<path d="M320.607 28.405C316.116 28.1606 311.914 29.2111 308.408 31.1875C291.226 40.8663 270.975 45.053 250.762 45.053H179.014C144.874 45.053 111.832 33.6683 86.576 12.7816C76.5821 4.51738 62.9844 -0.202431 48.1767 0.801338C22.9405 2.51243 2.5667 21.2694 0.970663 44.2312C-0.9114 71.3304 22.7088 93.845 52.1096 93.845C65.0123 93.845 76.8024 89.5101 85.8094 82.3511C111.786 61.7114 144.528 49.4607 179.029 49.4607H254.248C273.524 49.4607 292.201 54.6694 308.817 63.5525C311.897 65.1986 315.487 66.1425 319.32 66.1425C331.015 66.1425 340.454 57.3582 340.085 46.6497C339.756 37.0488 331.156 28.9823 320.607 28.405Z" fill="#F7960F"/>
</svg>
