<svg width="340" height="94" viewBox="0 0 340 94" fill="none" xmlns="http://www.w3.org/2000/svg">
<path d="M19.7306 66.1679C24.2212 66.415 28.4259 65.3618 31.9326 63.3855C49.1143 53.7092 69.365 49.5198 89.5786 49.5198H161.323C195.466 49.5198 228.508 60.9046 253.764 81.7914C263.758 90.0557 277.356 94.7755 292.164 93.7717C317.4 92.058 337.774 73.3036 339.367 50.3415C341.252 23.2422 317.631 0.727455 288.231 0.727455C275.328 0.727455 263.538 5.06506 254.531 12.2215C228.551 32.8613 195.809 45.1147 161.312 45.1147H86.0919C66.8136 45.1147 48.1389 39.9033 31.5235 31.0202C28.4401 29.3741 24.8505 28.4301 21.0206 28.4301C9.32491 28.4301 -0.114008 37.2144 0.254968 47.9231C0.586761 57.5266 9.18475 65.5906 19.7306 66.1679Z" fill="#0C8481"/>
</svg>
