<svg width="341" height="94" viewBox="0 0 341 94" fill="none" xmlns="http://www.w3.org/2000/svg">
<path d="M320.607 28.4651C316.116 28.2206 311.914 29.2712 308.408 31.2475C291.226 40.9263 270.975 45.1131 250.762 45.1131H179.014C144.874 45.1131 111.832 33.7283 86.576 12.8416C76.5821 4.57742 62.9844 -0.142387 48.1767 0.863983C22.9405 2.57507 2.5667 21.3294 0.970663 44.2913C-0.9114 71.393 22.7088 93.905 52.1096 93.905C65.0123 93.905 76.8024 89.5701 85.8094 82.4137C111.786 61.774 144.528 49.5208 179.029 49.5208H254.248C273.524 49.5208 292.201 54.7295 308.817 63.6151C311.897 65.2586 315.487 66.2052 319.32 66.2052C331.015 66.2052 340.454 57.4183 340.085 46.7123C339.756 37.1089 331.156 29.045 320.607 28.4651Z" fill="#F14159"/>
</svg>
