<svg width="340" height="95" viewBox="0 0 340 95" fill="none" xmlns="http://www.w3.org/2000/svg">
<path d="M19.7306 66.2874C24.2212 66.5319 28.4259 65.4813 31.9326 63.5049C49.1143 53.826 69.365 49.6393 89.5786 49.6393H161.323C195.466 49.6393 228.508 61.0241 253.764 81.911C263.758 90.1753 277.356 94.8951 292.164 93.8914C317.4 92.1777 337.774 73.4231 339.367 50.461C341.252 23.3616 317.631 0.846764 288.231 0.846764C275.328 0.846764 263.538 5.18172 254.531 12.3382C228.551 32.9807 195.809 45.2315 161.312 45.2315H86.0919C66.8136 45.2315 48.1389 40.0227 31.5235 31.1396C28.4401 29.4935 24.8505 28.5495 21.0206 28.5495C9.32491 28.5495 -0.114008 37.3339 0.254968 48.0426C0.586761 57.6435 9.18475 65.7101 19.7306 66.2874Z" fill="#854E67"/>
</svg>
