<svg width="341" height="95" viewBox="0 0 341 95" fill="none" xmlns="http://www.w3.org/2000/svg">
<path d="M320.607 28.5847C316.116 28.3377 311.914 29.3908 308.408 31.3672C291.226 41.046 270.975 45.2327 250.762 45.2327H179.014C144.874 45.2327 111.832 33.848 86.576 12.9612C76.5821 4.69698 62.9844 -0.0228195 48.1767 0.980949C22.9405 2.69465 2.5667 21.4491 0.970663 44.4136C-0.9114 71.5103 22.7088 94.0249 52.1096 94.0249C65.0123 94.0249 76.8024 89.69 85.8094 82.5335C111.786 61.8912 144.528 49.6379 179.029 49.6379H254.248C273.524 49.6379 292.201 54.8492 308.817 63.7323C311.897 65.3784 315.487 66.3224 319.32 66.3224C331.015 66.3224 340.454 57.538 340.085 46.8294C339.756 37.2286 331.156 29.162 320.607 28.5847Z" fill="#F46943"/>
</svg>
