<svg width="282" height="1004" viewBox="0 0 282 1004" fill="none" xmlns="http://www.w3.org/2000/svg">
<path d="M55.237 697.031C39.9345 710.097 31.6925 727.908 32.0158 746.896C32.7167 783.059 66.2798 812.467 106.955 812.467H173.326C201.662 812.467 229.567 821.523 249.93 839.43C271.048 858.076 282.469 883.178 281.985 909.85C281.015 961.768 233.071 1004 175.048 1004H121.445C112.611 1004 105.444 997.493 105.444 989.466C105.444 985.454 107.221 981.832 110.13 979.191C113.043 976.549 117.028 974.932 121.445 974.932H175.048C215.723 974.932 249.286 945.524 249.987 909.359C250.307 890.42 242.065 872.61 226.766 859.546C212.651 847.507 193.526 841.535 174.133 841.535H106.955C48.9318 841.535 0.987423 799.305 0.014746 747.385C-0.468732 720.715 10.9516 695.613 32.0702 676.968C52.4334 659.058 80.3407 649.955 108.677 649.955H175.048C215.723 649.955 249.286 620.546 249.987 584.382C250.307 565.445 242.065 547.632 226.766 534.566C212.651 522.527 193.475 516.558 174.133 516.558H106.955C53.08 516.558 7.88198 480.151 0.933056 433.368C0.392362 429.748 0.0691015 426.126 0.014746 422.407C-0.468732 395.738 10.9516 370.633 32.0702 351.99C52.4334 334.081 80.3407 324.978 108.677 324.978H175.048C215.723 324.978 249.286 295.566 249.987 259.404C250.307 240.468 242.065 222.654 226.766 209.589C212.651 197.552 193.526 191.58 174.133 191.58H106.955C48.9318 191.58 0.987423 149.35 0.014746 97.4299C-0.468732 70.7604 10.9516 45.6578 32.0702 27.0127C52.4334 9.10046 80.3407 6.10352e-05 108.677 6.10352e-05H125.001C133.835 6.10352e-05 141.001 6.50702 141.001 14.5341C141.001 18.5464 139.222 22.1663 136.313 24.8091C133.406 27.4518 129.418 29.0681 125.001 29.0681H107.867C88.5283 29.0681 69.3494 35.0372 55.237 47.1234C39.9345 60.1425 31.6925 78.0027 32.0158 96.9414C32.7167 133.104 66.2798 162.515 106.955 162.515H173.326C201.662 162.515 229.567 171.568 249.93 189.478C271.048 208.12 282.469 233.226 281.985 259.895C281.015 311.813 233.071 354.046 175.048 354.046H107.867C88.5283 354.046 69.3494 360.015 55.237 372.054C39.9345 385.12 31.6925 402.931 32.0158 421.919C32.1245 425.832 32.5565 429.65 33.3633 433.368C40.0433 464.099 70.6969 487.492 106.955 487.492H173.326C201.662 487.492 229.567 496.543 249.93 514.455C271.048 533.1 282.469 558.203 281.985 584.87C281.015 636.793 233.071 679.023 175.048 679.023H107.867C88.5283 679.023 69.3494 684.995 55.237 697.031Z" fill="#E4D8D6"/>
</svg>
